<?xml version="1.0" encoding="UTF-8" standalone="no"?>
<!DOCTYPE svg PUBLIC "-//W3C//DTD SVG 1.1//EN"
 "http://www.w3.org/Graphics/SVG/1.1/DTD/svg11.dtd">
<!-- Generated by graphviz version 9.0.0 (20230911.1827)
 -->
<!-- Title: G Pages: 1 -->
<svg width="242pt" height="116pt"
 viewBox="0.00 0.00 242.00 116.00" xmlns="http://www.w3.org/2000/svg" xmlns:xlink="http://www.w3.org/1999/xlink">
<g id="graph0" class="graph" transform="scale(1 1) rotate(0) translate(4 112)">
<title>G</title>
<polygon fill="white" stroke="none" points="-4,4 -4,-112 238,-112 238,4 -4,4"/>
<!-- 129 -->
<g id="node1" class="node">
<title>129</title>
<ellipse fill="none" stroke="black" cx="63" cy="-90" rx="27" ry="18"/>
<text text-anchor="middle" x="63" y="-84.58" font-family="Times New Roman,serif" font-size="14.00">129</text>
</g>
<!-- 125 -->
<g id="node2" class="node">
<title>125</title>
<ellipse fill="none" stroke="black" cx="27" cy="-18" rx="27" ry="18"/>
<text text-anchor="middle" x="27" y="-12.57" font-family="Times New Roman,serif" font-size="14.00">125</text>
</g>
<!-- 129&#45;&gt;125 -->
<g id="edge1" class="edge">
<title>129&#45;&gt;125</title>
<path fill="none" stroke="black" d="M54.65,-72.76C50.42,-64.55 45.19,-54.37 40.42,-45.09"/>
<polygon fill="black" stroke="black" points="43.68,-43.79 36,-36.49 37.46,-46.99 43.68,-43.79"/>
</g>
<!-- 130 -->
<g id="node4" class="node">
<title>130</title>
<ellipse fill="none" stroke="black" cx="99" cy="-18" rx="27" ry="18"/>
<text text-anchor="middle" x="99" y="-12.57" font-family="Times New Roman,serif" font-size="14.00">130</text>
</g>
<!-- 129&#45;&gt;130 -->
<g id="edge2" class="edge">
<title>129&#45;&gt;130</title>
<path fill="none" stroke="black" d="M71.35,-72.76C75.58,-64.55 80.81,-54.37 85.58,-45.09"/>
<polygon fill="black" stroke="black" points="88.54,-46.99 90,-36.49 82.32,-43.79 88.54,-46.99"/>
</g>
<!-- 128 -->
<g id="node3" class="node">
<title>128</title>
<ellipse fill="none" stroke="black" cx="135" cy="-90" rx="27" ry="18"/>
<text text-anchor="middle" x="135" y="-84.58" font-family="Times New Roman,serif" font-size="14.00">128</text>
</g>
<!-- 131 -->
<g id="node5" class="node">
<title>131</title>
<ellipse fill="none" stroke="black" cx="207" cy="-90" rx="27" ry="18"/>
<text text-anchor="middle" x="207" y="-84.58" font-family="Times New Roman,serif" font-size="14.00">131</text>
</g>
</g>
</svg>
