<?xml version="1.0" encoding="UTF-8" standalone="no"?>
<!DOCTYPE svg PUBLIC "-//W3C//DTD SVG 1.1//EN"
 "http://www.w3.org/Graphics/SVG/1.1/DTD/svg11.dtd">
<!-- Generated by graphviz version 9.0.0 (20230911.1827)
 -->
<!-- Pages: 1 -->
<svg width="458pt" height="260pt"
 viewBox="0.00 0.00 458.14 260.00" xmlns="http://www.w3.org/2000/svg" xmlns:xlink="http://www.w3.org/1999/xlink">
<g id="graph0" class="graph" transform="scale(1 1) rotate(0) translate(4 256)">
<polygon fill="white" stroke="none" points="-4,4 -4,-256 454.14,-256 454.14,4 -4,4"/>
<!-- 5 -->
<g id="node1" class="node">
<title>5</title>
<ellipse fill="none" stroke="black" cx="224.57" cy="-234" rx="53.06" ry="18"/>
<text text-anchor="middle" x="224.57" y="-228.57" font-family="Times New Roman,serif" font-size="14.00">4E3B4A3C</text>
</g>
<!-- 6 -->
<g id="node2" class="node">
<title>6</title>
<ellipse fill="none" stroke="black" cx="165.57" cy="-162" rx="49.07" ry="18"/>
<text text-anchor="middle" x="165.57" y="-156.57" font-family="Times New Roman,serif" font-size="14.00">313E493B</text>
</g>
<!-- 5&#45;&#45;6 -->
<g id="edge1" class="edge">
<title>5&#45;&#45;6</title>
<path fill="none" stroke="black" d="M210.59,-216.41C201.18,-205.25 188.83,-190.6 179.45,-179.47"/>
</g>
<!-- 9 -->
<g id="node3" class="node">
<title>9</title>
<ellipse fill="none" stroke="black" cx="284.57" cy="-162" rx="50.07" ry="18"/>
<text text-anchor="middle" x="284.57" y="-156.57" font-family="Times New Roman,serif" font-size="14.00">4B3F393F</text>
</g>
<!-- 5&#45;&#45;9 -->
<g id="edge2" class="edge">
<title>5&#45;&#45;9</title>
<path fill="none" stroke="black" d="M238.79,-216.41C248.35,-205.25 260.91,-190.6 270.45,-179.47"/>
</g>
<!-- 7 -->
<g id="node4" class="node">
<title>7</title>
<ellipse fill="none" stroke="black" cx="48.57" cy="-90" rx="48.57" ry="18"/>
<text text-anchor="middle" x="48.57" y="-84.58" font-family="Times New Roman,serif" font-size="14.00">39697C69</text>
</g>
<!-- 6&#45;&#45;7 -->
<g id="edge3" class="edge">
<title>6&#45;&#45;7</title>
<path fill="none" stroke="black" d="M140.76,-146.15C120.9,-134.28 93.19,-117.7 73.35,-105.82"/>
</g>
<!-- 8 -->
<g id="node5" class="node">
<title>8</title>
<ellipse fill="none" stroke="black" cx="165.57" cy="-90" rx="50.56" ry="18"/>
<text text-anchor="middle" x="165.57" y="-84.58" font-family="Times New Roman,serif" font-size="14.00">3A697C69</text>
</g>
<!-- 6&#45;&#45;8 -->
<g id="edge4" class="edge">
<title>6&#45;&#45;8</title>
<path fill="none" stroke="black" d="M165.57,-143.7C165.57,-132.85 165.57,-118.92 165.57,-108.1"/>
</g>
<!-- 10 -->
<g id="node8" class="node">
<title>10</title>
<ellipse fill="none" stroke="black" cx="284.57" cy="-90" rx="50.07" ry="18"/>
<text text-anchor="middle" x="284.57" y="-84.58" font-family="Times New Roman,serif" font-size="14.00">3B697C69</text>
</g>
<!-- 9&#45;&#45;10 -->
<g id="edge7" class="edge">
<title>9&#45;&#45;10</title>
<path fill="none" stroke="black" d="M284.57,-143.7C284.57,-132.85 284.57,-118.92 284.57,-108.1"/>
</g>
<!-- 11 -->
<g id="node9" class="node">
<title>11</title>
<ellipse fill="none" stroke="black" cx="401.57" cy="-90" rx="48.57" ry="18"/>
<text text-anchor="middle" x="401.57" y="-84.58" font-family="Times New Roman,serif" font-size="14.00">717C7865</text>
</g>
<!-- 9&#45;&#45;11 -->
<g id="edge8" class="edge">
<title>9&#45;&#45;11</title>
<path fill="none" stroke="black" d="M309.67,-145.98C329.54,-134.09 357.15,-117.57 376.91,-105.75"/>
</g>
<!-- 1 -->
<g id="node6" class="node">
<title>1</title>
<polygon fill="none" stroke="black" points="75.57,-36 21.57,-36 21.57,0 75.57,0 75.57,-36"/>
<text text-anchor="middle" x="48.57" y="-12.57" font-family="Times New Roman,serif" font-size="14.00">data1</text>
</g>
<!-- 7&#45;&#45;1 -->
<g id="edge5" class="edge">
<title>7&#45;&#45;1</title>
<path fill="none" stroke="black" d="M48.57,-71.7C48.57,-60.85 48.57,-46.92 48.57,-36.1"/>
</g>
<!-- 2 -->
<g id="node7" class="node">
<title>2</title>
<polygon fill="none" stroke="black" points="192.57,-36 138.57,-36 138.57,0 192.57,0 192.57,-36"/>
<text text-anchor="middle" x="165.57" y="-12.57" font-family="Times New Roman,serif" font-size="14.00">data2</text>
</g>
<!-- 8&#45;&#45;2 -->
<g id="edge6" class="edge">
<title>8&#45;&#45;2</title>
<path fill="none" stroke="black" d="M165.57,-71.7C165.57,-60.85 165.57,-46.92 165.57,-36.1"/>
</g>
<!-- 3 -->
<g id="node10" class="node">
<title>3</title>
<polygon fill="none" stroke="black" points="311.57,-36 257.57,-36 257.57,0 311.57,0 311.57,-36"/>
<text text-anchor="middle" x="284.57" y="-12.57" font-family="Times New Roman,serif" font-size="14.00">data3</text>
</g>
<!-- 10&#45;&#45;3 -->
<g id="edge9" class="edge">
<title>10&#45;&#45;3</title>
<path fill="none" stroke="black" d="M284.57,-71.7C284.57,-60.85 284.57,-46.92 284.57,-36.1"/>
</g>
<!-- 4 -->
<g id="node11" class="node">
<title>4</title>
<polygon fill="none" stroke="black" points="428.57,-36 374.57,-36 374.57,0 428.57,0 428.57,-36"/>
<text text-anchor="middle" x="401.57" y="-12.57" font-family="Times New Roman,serif" font-size="14.00">empty</text>
</g>
<!-- 11&#45;&#45;4 -->
<g id="edge10" class="edge">
<title>11&#45;&#45;4</title>
<path fill="none" stroke="black" d="M401.57,-71.7C401.57,-60.85 401.57,-46.92 401.57,-36.1"/>
</g>
</g>
</svg>
